HIERARCHY
ROOT Hips
{
 OFFSET 0.000000 0.000000 0.000000
 CHANNELS 6 Xposition Yposition Zposition Yrotation Xrotation Zrotation
 JOINT Chest
 {
  OFFSET 0.000000 9.588913 -0.003946
  CHANNELS 3 Yrotation Xrotation Zrotation
  JOINT Chest2
  {
   OFFSET 0.000000 9.541882 0.008053
   CHANNELS 3 Yrotation Xrotation Zrotation
   JOINT Chest3
   {
    OFFSET 0.000000 9.501360 0.000000
    CHANNELS 3 Yrotation Xrotation Zrotation
    JOINT Chest4
    {
     OFFSET 0.000000 9.491660 0.000000
     CHANNELS 3 Yrotation Xrotation Zrotation
     JOINT Neck
     {
      OFFSET 0.000000 14.331917 0.000000
      CHANNELS 3 Yrotation Xrotation Zrotation
      JOINT Head
      {
       OFFSET 0.000000 8.884799 0.017034
       CHANNELS 3 Yrotation Xrotation Zrotation
       End Site
       {
        OFFSET 0.000000 16.896195 0.008993
       }
      }
     }
     JOINT RightCollar
     {
      OFFSET -2.923010 9.499495 0.000000
      CHANNELS 3 Yrotation Xrotation Zrotation
      JOINT RightShoulder
      {
       OFFSET -13.795216 0.000000 0.000000
       CHANNELS 3 Yrotation Xrotation Zrotation
       JOINT RightElbow
       {
        OFFSET -30.272209 0.000000 0.000000
        CHANNELS 3 Yrotation Xrotation Zrotation
        JOINT RightWrist
        {
         OFFSET -24.478199 0.000000 0.000000
         CHANNELS 3 Yrotation Xrotation Zrotation
         End Site
         {
          OFFSET -18.090752 0.000000 0.000000
         }
        }
       }
      }
     }
     JOINT LeftCollar
     {
      OFFSET 2.923010 9.499495 0.000000
      CHANNELS 3 Yrotation Xrotation Zrotation
      JOINT LeftShoulder
      {
       OFFSET 13.795216 0.000000 0.000000
       CHANNELS 3 Yrotation Xrotation Zrotation
       JOINT LeftElbow
       {
        OFFSET 30.272209 0.000000 0.000000
        CHANNELS 3 Yrotation Xrotation Zrotation
        JOINT LeftWrist
        {
         OFFSET 24.478199 0.000000 0.000000
         CHANNELS 3 Yrotation Xrotation Zrotation
         End Site
         {
          OFFSET 18.090752 0.000000 0.000000
         }
        }
       }
      }
     }
    }
   }
  }
 }
 JOINT RightHip
 {
  OFFSET -7.826875 0.019532 0.001973
  CHANNELS 3 Yrotation Xrotation Zrotation
  JOINT RightKnee
  {
   OFFSET 0.000000 -40.546152 -0.001885
   CHANNELS 3 Yrotation Xrotation Zrotation
   JOINT RightAnkle
   {
    OFFSET 0.000000 -39.417092 -0.003189
    CHANNELS 3 Yrotation Xrotation Zrotation
    JOINT RightToe
    {
     OFFSET 0.000000 -7.579396 17.243563
     CHANNELS 3 Yrotation Xrotation Zrotation
     End Site
     {
      OFFSET 0.000000 -1.500329 6.694466
     }
    }
   }
  }
 }
 JOINT LeftHip
 {
  OFFSET 7.826875 0.019532 0.001973
  CHANNELS 3 Yrotation Xrotation Zrotation
  JOINT LeftKnee
  {
   OFFSET 0.000000 -40.546152 -0.001885
   CHANNELS 3 Yrotation Xrotation Zrotation
   JOINT LeftAnkle
   {
    OFFSET 0.000000 -39.417092 -0.003189
    CHANNELS 3 Yrotation Xrotation Zrotation
    JOINT LeftToe
    {
     OFFSET 0.000000 -7.579396 17.243563
     CHANNELS 3 Yrotation Xrotation Zrotation
     End Site
     {
      OFFSET 0.000000 -1.500329 6.694466
     }
    }
   }
  }
 }
}
MOTION
Frames: 11
Frame Time: 0.008333
0.000000 87.345680 0.000000 0.000000 -5.767889 0.000000 0.000000 11.653876 0.000000 0.000000 -5.885988 0.000000 0.000000 -0.000000 0.000000 0.000000 -0.000000 0.000000 0.000000 12.528808 0.000000 0.000000 0.711711 0.000000 0.000000 -0.000000 0.000000 0.000000 -0.000000 0.000000 2.309063 -0.000000 0.000000 -2.309063 -0.000000 -0.000000 0.000000 -0.000000 0.000000 0.000000 0.000000 0.000000 -2.309063 0.000000 0.000000 2.309063 -0.000000 0.000000 0.000000 8.520374 0.000000 0.000000 1.905768 0.000000 -0.000000 -4.658254 0.000000 0.000000 -0.000000 0.000000 0.000000 8.520374 0.000000 0.000000 1.905768 0.000000 -0.000000 -4.658254 0.000000 0.000000 -0.000000 0.000000
-2.624710 89.187198 -6.763951 150.125680 -8.137614 0.409785 4.276246 3.646839 -0.121998 2.438930 2.080379 -0.084340 3.048687 2.600887 -0.091586 2.438930 2.080379 -0.084340 24.128681 27.699211 -2.999251 30.471860 8.908750 -8.981516 1.107320 1.204470 -0.935084 -16.844393 2.260058 91.704190 5.417823 -0.192308 0.173495 0.571153 -4.653050 0.030259 -4.055491 1.291218 0.578844 12.900577 -2.936373 -89.819655 0.844209 -12.694298 -1.331859 -2.616701 -2.570952 1.325179 -15.197079 9.759562 -2.622002 0.100600 3.498745 0.447320 -3.085852 -5.631588 -0.726359 -0.002380 -0.024866 0.000922 1.705595 8.353930 0.173311 -6.162857 2.708726 -0.301860 -8.008679 -3.987969 0.675122 0.008794 0.056868 -0.116854
-2.619114 89.187586 -6.755679 150.109083 -8.129551 0.405687 4.272266 3.647600 -0.120608 2.436491 2.081484 -0.083406 3.045643 2.602262 -0.090426 2.436491 2.081484 -0.083406 24.122755 27.701723 -3.010020 30.466788 8.912405 -8.993339 1.108224 1.195228 -0.941204 -16.847184 2.259566 91.703709 5.426279 -0.199197 0.169401 0.571280 -4.656044 0.028788 -4.041619 1.282105 0.571505 12.902176 -2.941721 -89.824094 0.837588 -12.696276 -1.336513 -2.617003 -2.571751 1.325922 -15.177435 9.751664 -2.610770 0.101727 3.495810 0.451544 -3.073610 -5.626004 -0.735763 -0.002924 -0.026826 0.001393 1.759178 8.344968 0.187225 -6.152334 2.711269 -0.300537 -8.069298 -3.992927 0.711669 0.010696 0.059415 -0.122222
-2.612328 89.188182 -6.746589 150.092493 -8.123884 0.401061 4.268125 3.648126 -0.119371 2.434073 2.082435 -0.082293 3.042626 2.603443 -0.089042 2.434073 2.082435 -0.082293 24.119022 27.704268 -3.018207 30.464062 8.916298 -9.002459 1.110859 1.190122 -0.947268 -16.855098 2.260115 91.703424 5.433851 -0.207201 0.168356 0.575548 -4.657994 0.028057 -4.026710 1.275834 0.562950 12.904136 -2.947863 -89.827175 0.831713 -12.695035 -1.339939 -2.617459 -2.575924 1.324028 -15.154877 9.746061 -2.598040 0.100655 3.493653 0.455428 -3.063707 -5.620819 -0.745121 -0.003876 -0.028922 0.001209 1.815567 8.341568 0.201482 -6.144846 2.708633 -0.298612 -8.122155 -3.997731 0.746793 0.012333 0.062915 -0.125528
-2.604756 89.188955 -6.736921 150.075570 -8.120012 0.397329 4.264636 3.649213 -0.118861 2.432301 2.083328 -0.081325 3.040417 2.604552 -0.087835 2.432301 2.083328 -0.081325 24.115614 27.706392 -3.023426 30.460849 8.919153 -9.008019 1.110652 1.186448 -0.951523 -16.867247 2.260235 91.702816 5.440040 -0.210266 0.168339 0.580841 -4.661071 0.027922 -4.012832 1.268841 0.555785 12.904938 -2.951024 -89.827696 0.826129 -12.693545 -1.346524 -2.618129 -2.581106 1.322721 -15.131933 9.742026 -2.583934 0.099751 3.491303 0.459053 -3.065538 -5.615621 -0.754649 -0.005888 -0.031013 0.000017 1.873067 8.342000 0.219158 -6.140528 2.700373 -0.293783 -8.193021 -4.002417 0.773443 0.012645 0.067138 -0.126194
-2.596383 89.189840 -6.726513 150.058819 -8.116533 0.392508 4.261824 3.650749 -0.117379 2.430894 2.084309 -0.079880 3.038666 2.605770 -0.086030 2.430894 2.084309 -0.079880 24.110841 27.708417 -3.027839 30.455405 8.921298 -9.012298 1.106184 1.181550 -0.956612 -16.877980 2.259892 91.704597 5.447908 -0.210714 0.166520 0.584922 -4.664355 0.025112 -4.000208 1.259837 0.549927 12.902681 -2.952631 -89.826925 0.821842 -12.695085 -1.356582 -2.618712 -2.583818 1.321894 -15.109698 9.738178 -2.566910 0.098480 3.489533 0.461376 -3.072609 -5.609858 -0.763543 -0.008723 -0.033684 -0.001890 1.929983 8.344607 0.237432 -6.137088 2.688467 -0.283573 -8.265184 -4.007620 0.792459 0.014028 0.071607 -0.124410
-2.587278 89.190768 -6.715237 150.043956 -8.112111 0.385259 4.259355 3.651396 -0.114395 2.429372 2.084930 -0.078171 3.036773 2.606533 -0.083898 2.429372 2.084930 -0.078171 24.105823 27.710696 -3.031465 30.449363 8.923568 -9.015542 1.101703 1.176703 -0.962219 -16.888471 2.258322 91.708447 5.454680 -0.211173 0.163791 0.588011 -4.668807 0.022410 -3.987571 1.250158 0.545453 12.893496 -2.955045 -89.826145 0.820826 -12.698897 -1.365793 -2.620297 -2.582909 1.320725 -15.089513 9.733591 -2.549204 0.095326 3.488555 0.464542 -3.070641 -5.603853 -0.771924 -0.010908 -0.036840 -0.004031 1.983542 8.346830 0.252029 -6.132479 2.677112 -0.267271 -8.315857 -4.014771 0.806132 0.018326 0.076134 -0.119641
-2.578052 89.191671 -6.703242 150.031338 -8.105262 0.378192 4.257104 3.650310 -0.112078 2.427975 2.084681 -0.077169 3.035032 2.606216 -0.082655 2.427975 2.084681 -0.077169 24.101801 27.713402 -3.032519 30.443946 8.926250 -9.015808 1.099637 1.172083 -0.965083 -16.901504 2.257314 91.710560 5.458383 -0.210547 0.162515 0.589539 -4.672873 0.024249 -3.975672 1.241421 0.542771 12.878514 -2.957625 -89.826377 0.819713 -12.699784 -1.370198 -2.622845 -2.581103 1.320381 -15.073205 9.726273 -2.532024 0.092257 3.487721 0.468456 -3.066718 -5.598229 -0.781307 -0.012725 -0.039628 -0.005489 2.032398 8.345709 0.263590 -6.130323 2.667275 -0.247954 -8.352866 -4.023418 0.813425 0.023556 0.080520 -0.111620
-2.569031 89.192572 -6.691209 150.023196 -8.098078 0.373759 4.253491 3.648445 -0.111989 2.426081 2.083881 -0.076960 3.032665 2.605214 -0.082411 2.426081 2.083881 -0.076960 24.099294 27.717149 -3.030629 30.439801 8.930280 -9.012718 1.099092 1.167696 -0.965253 -16.912488 2.259171 91.710227 5.462555 -0.212997 0.162550 0.588040 -4.670271 0.026177 -3.968563 1.235562 0.541509 12.868219 -2.960789 -89.829518 0.814216 -12.696820 -1.369785 -2.623316 -2.583081 1.324028 -15.065069 9.717139 -2.516173 0.092396 3.488331 0.470046 -3.070628 -5.593959 -0.790262 -0.015650 -0.041964 -0.006608 2.071793 8.341736 0.274291 -6.132974 2.659396 -0.226315 -8.399217 -4.032792 0.812423 0.026848 0.084057 -0.102282
-2.559982 89.193504 -6.679601 150.020660 -8.092979 0.370885 4.247923 3.646744 -0.112462 2.423176 2.083073 -0.076871 3.029034 2.604203 -0.082321 2.423176 2.083073 -0.076871 24.097648 27.722278 -3.027122 30.436412 8.936176 -9.007743 1.099298 1.165142 -0.965906 -16.918959 2.263327 91.709273 5.469698 -0.217308 0.163174 0.584332 -4.664826 0.025244 -3.965370 1.231659 0.539322 12.865082 -2.965371 -89.833084 0.806785 -12.694067 -1.368723 -2.621087 -2.587718 1.331861 -15.065511 9.709725 -2.504465 0.095180 3.489627 0.470837 -3.071410 -5.590856 -0.797692 -0.019155 -0.043991 -0.007897 2.099556 8.337187 0.282254 -6.138154 2.655403 -0.201631 -8.446053 -4.043434 0.806127 0.029367 0.086209 -0.093042
-2.550776 89.194407 -6.668128 150.018076 -8.087894 0.367647 4.242428 3.644678 -0.111127 2.420399 2.082188 -0.076268 3.025565 2.603093 -0.081588 2.420399 2.082188 -0.076268 24.095016 27.728545 -3.023874 30.431707 8.943384 -9.002806 1.100942 1.163012 -0.968863 -16.923187 2.268818 91.707640 5.477389 -0.218730 0.163599 0.580643 -4.660956 0.024394 -3.961357 1.227039 0.534477 12.862823 -2.970013 -89.835812 0.803064 -12.695264 -1.368622 -2.621298 -2.589848 1.338023 -15.067352 9.703423 -2.495494 0.097389 3.489204 0.474345 -3.063491 -5.587390 -0.806570 -0.022759 -0.045620 -0.008623 2.122341 8.332372 0.283500 -6.142437 2.655203 -0.176406 -8.457686 -4.055556 0.800319 0.034204 0.087117 -0.082347
